<svg id="Layer_1" data-name="Layer 1" xmlns="http://www.w3.org/2000/svg" xmlns:xlink="http://www.w3.org/1999/xlink" viewBox="0 0 912.74 1533.38"><defs><style>.cls-1{fill:none;}.cls-2{clip-path:url(#clip-path);}.cls-3{fill:#4e6996;}.cls-4{fill:#343a40;}.cls-5{fill:#7f6289;}.cls-6{fill:#44af69;}</style><clipPath id="clip-path" transform="translate(72.12 81.38)"><rect class="cls-1" width="768" height="1366"/></clipPath></defs><g class="cls-2"><polygon class="cls-3" points="31.12 613.38 880.68 622.13 865.12 1367.38 38.12 1376.38 31.12 613.38"/><polygon class="cls-4" points="21.12 50.38 871.12 50.38 868.85 740.77 477.12 387.38 233.12 438.38 21.12 50.38"/><path class="cls-5" d="M569,1256c-24.68-24.45,23.24-72.21,11-143-18.37-106.25-153.66-156.8-173-164-30.61-11.4-89.88-33.49-120-7-29.22,25.7-8.55,77.38-36,93-29.93,17-75-32.78-93-19-24.55,18.76,59.09,117.37,28,175-35.45,65.71-186.54,16.3-226,85-18.5,32.21-4.38,76.31,14,113l803,63c7.66-6.4,56.39-48.31,50-100-7-57-76.76-90.4-124-99C632.87,1240.23,591.48,1278.28,569,1256Z" transform="translate(72.12 81.38)"/><path class="cls-6" d="M330,204c18.09-6.56,93.05-33.74,159-7,42,17,70.58,65.59,126,162,67.18,116.87,70.34,154.25,127,202,42.28,35.63,56.56,28.93,76,58,44.25,66.17,18.21,172.58-32,240-38.76,52-125.34,123.77-187,99-104-41.78-56.44-325.87-124-339-53.13-10.33-95.71,162.78-196,166-76.74,2.47-117.74-96.78-169-78-41.65,15.26-27.87,85.67-87,159-35.33,43.81-63.33,15-92,27,4.56-328.27-6.56-604.73-2-933C-31.94-76-12.66-85.32-5-80,10.5-69.24-36.4-8.77-14,34,10.61,81,87.87,47.48,140,98c59,57.12,18.37,159.27,60,173C231.4,281.36,250.83,232.7,330,204Z" transform="translate(72.12 81.38)"/></g></svg>