<svg xmlns="http://www.w3.org/2000/svg" viewBox="0 0 1366 768" preserveAspectRatio="xMidYMid slice"><defs><style>.cls-1{fill:#4e6996;}.cls-2,.cls-3{fill:none;stroke-miterlimit:10;}.cls-2{stroke:#2e3192;}.cls-3{stroke:#666;}</style></defs><g id="Layer_2" data-name="Layer 2"><rect class="cls-1" width="1366" height="768"/><path class="cls-2" d="M1263.5.5c6.66,89.55-16.93,140.2-40,170-33.48,43.24-49.43,32.93-125,114-38.8,41.63-46.24,58.53-48,76-3.94,39.18,20.73,80.92,53,103,39.85,27.26,69.63,9.71,89,35,21.39,27.93,6.87,77.79-9,107-35.24,64.9-96.23,63.09-107,106-5.23,20.85,6.09,40.91,13.49,56.25"/><path class="cls-2" d="M553.5,62.5c93.8-39.9,158-18.24,182-62,.09-.16.17-.33.26-.5H189.86c26.6,37.19,39.9,55.84,37.64,65.5-7.34,31.43-123.37-1.57-161,50-27.59,37.81-3.84,108.49,26,149,31.78,43.15,56.35,32.93,107,86,27.6,28.92,67.6,70.83,63,119-3.94,41.3-36.58,44.47-55,94-20.33,54.66-1.81,107.86,16,159A418.81,418.81,0,0,0,242.78,768H908.51c12.46-53.67,10-115.18-17-165.5-51.42-95.73-171.1-112.39-166-174,1.38-16.66,19.92-38.44,57-82,35.84-42.1,53.71-51.63,66-84,5.93-15.63,20.47-53.94,5-75-28.66-39-134.11,47-282,27-46.77-6.33-124-26.62-128-61C438.68,112.23,541.31,67.68,553.5,62.5Z"/></g><g id="Layer_2_copy" data-name="Layer 2 copy"><path class="cls-3" d="M235-579c.53,37.82-34.46,41.71-37,81-5.3,81.91,143.91,109.1,153,190,10.92,97.12-193.17,155-186,255,1.39,19.38,10.49,37,24.36,53h546c70.21-119.53,72.17-200.14,57.6-254-10.83-40-39.49-97.72-21-170,10.11-39.52,30.07-69.55,43-89,44.42-66.83,77.37-70.93,94-112,11.21-27.7,14.91-72-23-143H50q-3.49,11.5-7,23C27-692,233.8-664.21,235-579Z"/><path class="cls-3" d="M1264,0c-1.38-72.51-12.59-168.58-68.5-193.5-60.11-26.79-123.46,50.24-182,20-55.4-28.62-80.67-139.95-40-200,52.48-77.49,194.5-39.65,214-100,14.29-44.2-56.23-82.1-40-128,19.52-55.23,136.52-42.54,148-89,6-24.48-20.21-53.11-50.5-77.5"/></g></svg>